# xmcd CD database file
#
# Track frame offsets:
#	150
#	15612
#	37563
#	59733
#	81463
#	95115
#	109600
#	121730
#	135784
#	151165
#	166062
#	180212
#
# Disc length: 2558 seconds
#
# Revision: 0
# Processed by: cddbd v1.5.2PL0 Copyright (c) Steve Scherf et al.
# Submitted via: CDex 1.70beta2
#
DISCID=8209fc0c
DTITLE=Nat King Cole - With Love - CD 05
DYEAR=2008
DGENRE=Jazz
TTITLE0=Hit The Ramp
TTITLE1=Indiana
TTITLE2=I'Can't Get Started
TTITLE3=Tea For Two
TTITLE4=Vom, Vim, Veedle
TTITLE5=Pitchin' Up A Boogie
TTITLE6=Stop The Red light's On
TTITLE7=F.S.T (Fine, Sweet And Tasty)
TTITLE8=All For You
TTITLE9=Let's Pretend
TTITLE10=My Lips Remember Your Kisses
TTITLE11=Got A Penny
EXTD=YEAR: 2008
EXTT0=
EXTT1=
EXTT2=
EXTT3=
EXTT4=
EXTT5=
EXTT6=
EXTT7=
EXTT8=
EXTT9=
EXTT10=
EXTT11=
PLAYORDER=
